<svg width="318" height="472" viewBox="0 0 318 472" fill="none" xmlns="http://www.w3.org/2000/svg">
<g clip-path="url(#clip0_261_2)">
<g opacity="0.25">
<path d="M149.846 360.206H115.185C114.552 355.721 113.259 351.738 111.307 348.256C109.355 344.721 106.849 341.714 103.789 339.235C100.729 336.755 97.1946 334.856 93.1851 333.537C89.2284 332.218 84.9287 331.559 80.2861 331.559C71.8978 331.559 64.591 333.643 58.3657 337.81C52.1404 341.925 47.3132 347.94 43.884 355.853C40.4548 363.714 38.7403 373.263 38.7403 384.5C38.7403 396.054 40.4548 405.761 43.884 413.622C47.366 421.482 52.2196 427.418 58.4449 431.427C64.6702 435.437 71.8714 437.441 80.0487 437.441C84.6385 437.441 88.8855 436.835 92.7894 435.621C96.7462 434.408 100.255 432.64 103.314 430.319C106.374 427.945 108.907 425.07 110.911 421.693C112.969 418.317 114.393 414.466 115.185 410.14L149.846 410.298C148.949 417.737 146.707 424.912 143.119 431.823C139.585 438.681 134.81 444.827 128.796 450.261C122.834 455.642 115.712 459.916 107.429 463.081C99.1994 466.194 89.8878 467.75 79.4948 467.75C65.0394 467.75 52.1141 464.479 40.7186 457.937C29.376 451.395 20.4073 441.926 13.8127 429.528C7.27091 417.13 4 402.121 4 384.5C4 366.827 7.32367 351.791 13.971 339.393C20.6183 326.995 29.6397 317.552 41.0352 311.063C52.4306 304.521 65.2505 301.25 79.4948 301.25C88.8855 301.25 97.5903 302.569 105.609 305.207C113.681 307.845 120.83 311.696 127.055 316.76C133.28 321.772 138.345 327.918 142.249 335.199C146.206 342.479 148.738 350.815 149.846 360.206Z" fill="white" fill-opacity="0.5"/>
<path d="M174.417 465.534V303.466H208.683V374.925H210.819L269.142 303.466H310.213L250.07 376.033L310.925 465.534H269.933L225.538 398.903L208.683 419.478V465.534H174.417Z" fill="white" fill-opacity="0.5"/>
<path d="M152.269 465.534V303.466H186.535V374.925H188.671L246.994 303.466H288.065L227.922 376.033L288.777 465.534H247.785L203.39 398.903L186.535 419.478V465.534H152.269Z" fill="#588157"/>
<path d="M150.498 353.077C149.102 346.249 146.876 340.004 143.807 334.357C139.796 326.878 134.582 320.547 128.169 315.383C121.766 310.175 114.425 306.224 106.161 303.524C97.945 300.821 89.0519 299.479 79.4948 299.479C64.9689 299.479 51.8413 302.817 40.1558 309.525C28.4508 316.191 19.2023 325.888 12.4099 338.556C5.59358 351.269 2.22864 366.608 2.22864 384.5C2.22864 402.336 5.53964 417.645 12.2461 430.354L12.2489 430.36C18.9877 443.029 28.1823 452.752 39.8337 459.472L39.8368 459.473C51.5269 466.184 64.7618 469.521 79.4948 469.521C90.0639 469.521 99.5931 467.939 108.056 464.738L108.062 464.736C116.528 461.5 123.843 457.118 129.983 451.576C136.147 446.007 141.056 439.692 144.693 432.635C147.339 427.537 149.275 422.292 150.498 416.901V465.534V467.306H152.269H172.646H174.417H186.535H188.306H208.683H210.454V465.534V420.111L213.177 416.786L246.311 466.516L246.837 467.306H247.785H268.985H269.933H288.777H292.123H310.925H314.271L312.39 464.538L252.284 376.138L311.577 304.596L313.981 301.694H310.213L150.498 353.077ZM150.498 353.077V303.466V301.694H152.269H172.646L150.498 353.077ZM268.301 301.694H246.994H246.153L245.621 302.346L210.454 345.434V303.466V301.694H208.683H268.301ZM149.846 361.977H150.498V408.53L149.854 408.527L115.193 408.368L113.709 408.362L113.442 409.821C112.686 413.958 111.331 417.6 109.399 420.772L109.393 420.78L109.388 420.789C107.497 423.975 105.115 426.679 102.236 428.914C99.3561 431.097 96.04 432.772 92.2701 433.928L92.2637 433.93C88.5494 435.084 84.4818 435.67 80.0487 435.67C72.1748 435.67 65.3139 433.744 59.404 429.938C53.5151 426.145 48.8703 420.503 45.5055 412.909C42.2027 405.335 40.5116 395.887 40.5116 384.5C40.5116 373.434 42.2011 364.141 45.5076 356.561L45.5093 356.557C48.8237 348.909 53.4463 343.185 59.3425 339.288L59.3512 339.282C65.2507 335.333 72.2052 333.33 80.2861 333.33C84.7597 333.33 88.868 333.965 92.625 335.218L92.6316 335.22C96.4516 336.476 99.7929 338.276 102.674 340.611C105.552 342.943 107.912 345.772 109.756 349.112L109.762 349.122C111.593 352.389 112.824 356.157 113.431 360.453L113.646 361.977H115.185H149.846Z" stroke="#344E41" stroke-width="3.54263"/>
</g>
<g opacity="0.5">
<path d="M149.846 211.706H115.185C114.552 207.221 113.259 203.238 111.307 199.756C109.355 196.221 106.849 193.214 103.789 190.735C100.729 188.255 97.1946 186.356 93.1851 185.037C89.2284 183.718 84.9287 183.059 80.2861 183.059C71.8978 183.059 64.591 185.143 58.3657 189.31C52.1404 193.425 47.3132 199.44 43.884 207.353C40.4548 215.214 38.7403 224.763 38.7403 236C38.7403 247.554 40.4548 257.261 43.884 265.122C47.366 272.982 52.2196 278.918 58.4449 282.927C64.6702 286.937 71.8714 288.941 80.0487 288.941C84.6385 288.941 88.8855 288.335 92.7894 287.121C96.7462 285.908 100.255 284.14 103.314 281.819C106.374 279.445 108.907 276.57 110.911 273.193C112.969 269.817 114.393 265.966 115.185 261.64L149.846 261.798C148.949 269.237 146.707 276.412 143.119 283.323C139.585 290.181 134.81 296.327 128.796 301.761C122.834 307.142 115.712 311.416 107.429 314.581C99.1994 317.694 89.8878 319.25 79.4948 319.25C65.0394 319.25 52.1141 315.979 40.7186 309.437C29.376 302.895 20.4073 293.426 13.8127 281.028C7.27091 268.63 4 253.621 4 236C4 218.327 7.32367 203.291 13.971 190.893C20.6183 178.495 29.6397 169.052 41.0352 162.563C52.4306 156.021 65.2505 152.75 79.4948 152.75C88.8855 152.75 97.5903 154.069 105.609 156.707C113.681 159.345 120.83 163.196 127.055 168.26C133.28 173.272 138.345 179.418 142.249 186.699C146.206 193.979 148.738 202.315 149.846 211.706Z" fill="white" fill-opacity="0.5"/>
<path d="M174.417 317.034V154.966H208.683V226.425H210.819L269.142 154.966H310.213L250.07 227.533L310.925 317.034H269.933L225.538 250.403L208.683 270.978V317.034H174.417Z" fill="white" fill-opacity="0.5"/>
<path d="M152.269 317.034V154.966H186.535V226.425H188.671L246.994 154.966H288.065L227.922 227.533L288.777 317.034H247.785L203.39 250.403L186.535 270.978V317.034H152.269Z" fill="#588157"/>
<path d="M150.498 204.577C149.102 197.749 146.876 191.504 143.807 185.857C139.796 178.378 134.582 172.047 128.169 166.883C121.766 161.675 114.425 157.724 106.161 155.024C97.945 152.321 89.0519 150.979 79.4948 150.979C64.9689 150.979 51.8413 154.317 40.1558 161.025C28.4508 167.691 19.2023 177.388 12.4099 190.056C5.59358 202.769 2.22864 218.108 2.22864 236C2.22864 253.836 5.53964 269.145 12.2461 281.854L12.2489 281.86C18.9877 294.529 28.1823 304.252 39.8337 310.972L39.8368 310.973C51.5269 317.684 64.7618 321.021 79.4948 321.021C90.0639 321.021 99.5931 319.439 108.056 316.238L108.062 316.236C116.528 313 123.843 308.618 129.983 303.076C136.147 297.507 141.056 291.192 144.693 284.135C147.339 279.037 149.275 273.792 150.498 268.401V317.034V318.806H152.269H172.646H174.417H186.535H188.306H208.683H210.454V317.034V271.611L213.177 268.286L246.311 318.016L246.837 318.806H247.785H268.985H269.933H288.777H292.123H310.925H314.271L312.39 316.038L252.284 227.638L311.577 156.096L313.981 153.194H310.213L150.498 204.577ZM150.498 204.577V154.966V153.194H152.269H172.646L150.498 204.577ZM268.301 153.194H246.994H246.153L245.621 153.846L210.454 196.934V154.966V153.194H208.683H268.301ZM149.846 213.477H150.498V260.03L149.854 260.027L115.193 259.868L113.709 259.862L113.442 261.321C112.686 265.458 111.331 269.1 109.399 272.272L109.393 272.28L109.388 272.289C107.497 275.475 105.115 278.179 102.236 280.414C99.3561 282.597 96.04 284.272 92.2701 285.428L92.2637 285.43C88.5494 286.584 84.4818 287.17 80.0487 287.17C72.1748 287.17 65.3139 285.244 59.404 281.438C53.5151 277.645 48.8703 272.003 45.5055 264.409C42.2027 256.835 40.5116 247.387 40.5116 236C40.5116 224.934 42.2011 215.641 45.5076 208.061L45.5093 208.057C48.8237 200.409 53.4463 194.685 59.3425 190.788L59.3512 190.782C65.2507 186.833 72.2052 184.83 80.2861 184.83C84.7597 184.83 88.868 185.465 92.625 186.718L92.6316 186.72C96.4516 187.976 99.7929 189.776 102.674 192.111C105.552 194.443 107.912 197.272 109.756 200.612L109.762 200.622C111.593 203.889 112.824 207.657 113.431 211.953L113.646 213.477H115.185H149.846Z" stroke="#344E41" stroke-width="3.54263"/>
</g>
<path d="M149.846 63.2056H115.185C114.552 58.7212 113.259 54.7381 111.307 51.2562C109.355 47.7215 106.849 44.7144 103.789 42.2348C100.729 39.7552 97.1946 37.856 93.1851 36.5371C89.2284 35.2182 84.9287 34.5587 80.2861 34.5587C71.8978 34.5587 64.591 36.6426 58.3657 40.8104C52.1404 44.9254 47.3132 50.9396 43.884 58.8531C40.4548 66.7139 38.7403 76.2628 38.7403 87.5C38.7403 99.0537 40.4548 108.761 43.884 116.622C47.366 124.482 52.2196 130.418 58.4449 134.427C64.6702 138.437 71.8714 140.441 80.0487 140.441C84.6385 140.441 88.8855 139.835 92.7894 138.621C96.7462 137.408 100.255 135.64 103.314 133.319C106.374 130.945 108.907 128.07 110.911 124.693C112.969 121.317 114.393 117.466 115.185 113.14L149.846 113.298C148.949 120.737 146.707 127.912 143.119 134.823C139.585 141.681 134.81 147.827 128.796 153.261C122.834 158.642 115.712 162.916 107.429 166.081C99.1994 169.194 89.8878 170.75 79.4948 170.75C65.0394 170.75 52.1141 167.479 40.7186 160.937C29.376 154.395 20.4073 144.926 13.8127 132.528C7.27091 120.13 4 105.121 4 87.5C4 69.8265 7.32367 54.7909 13.971 42.3931C20.6183 29.9952 29.6397 20.5518 41.0352 14.0627C52.4306 7.52091 65.2505 4.25 79.4948 4.25C88.8855 4.25 97.5903 5.56892 105.609 8.20675C113.681 10.8446 120.83 14.6958 127.055 19.7605C133.28 24.7723 138.345 30.9185 142.249 38.1989C146.206 45.4793 148.738 53.8149 149.846 63.2056Z" fill="white" fill-opacity="0.5"/>
<path d="M174.417 168.534V6.46582H208.683V77.9247H210.819L269.142 6.46582H310.213L250.07 79.0326L310.925 168.534H269.933L225.538 101.903L208.683 122.478V168.534H174.417Z" fill="white" fill-opacity="0.5"/>
<path d="M152.269 168.534V6.46582H186.535V77.9247H188.671L246.994 6.46582H288.065L227.922 79.0326L288.777 168.534H247.785L203.39 101.903L186.535 122.478V168.534H152.269Z" fill="#588157"/>
<path d="M150.498 56.0775C149.102 49.2486 146.876 43.0044 143.807 37.3567C139.796 29.8776 134.582 23.5472 128.169 18.383C121.766 13.1754 114.425 9.22428 106.161 6.5235C97.945 3.8211 89.0519 2.47864 79.4948 2.47864C64.9689 2.47864 51.8413 5.81733 40.1558 12.5251C28.4508 19.1912 19.2023 28.8877 12.4099 41.5561C5.59358 54.269 2.22864 69.6079 2.22864 87.5C2.22864 105.336 5.53964 120.645 12.2461 133.354L12.2489 133.36C18.9877 146.029 28.1823 155.752 39.8337 162.472L39.8368 162.473C51.5269 169.184 64.7618 172.521 79.4948 172.521C90.0639 172.521 99.5931 170.939 108.056 167.738L108.062 167.736C116.528 164.5 123.843 160.118 129.983 154.576V154.575C136.147 149.006 141.056 142.692 144.693 135.635C147.339 130.537 149.275 125.292 150.498 119.901V168.534V170.306H152.269H172.646H174.417H186.535H188.306H208.683H210.454V168.534V123.111L213.177 119.786L246.311 169.516L246.837 170.306H247.785H268.985H269.933H288.777H292.123H310.925H314.271L312.39 167.538L252.284 79.1377L311.577 7.59605L313.981 4.69442H310.213L150.498 56.0775ZM150.498 56.0775V6.46575V4.69443H152.269H172.646L150.498 56.0775ZM268.301 4.69443H246.994H246.153L245.621 5.34574L210.454 48.4344V6.46574V4.69442H208.683L268.301 4.69443ZM149.846 64.9769H150.498V111.53L149.854 111.527L115.193 111.368L113.709 111.362L113.442 112.821C112.686 116.958 111.331 120.6 109.399 123.772L109.393 123.78L109.388 123.789C107.497 126.975 105.115 129.679 102.236 131.914C99.3561 134.097 96.04 135.772 92.2701 136.928L92.2637 136.93C88.5494 138.084 84.4818 138.67 80.0487 138.67C72.1748 138.67 65.3139 136.744 59.404 132.938C53.5151 129.145 48.8703 123.503 45.5055 115.909C42.2027 108.335 40.5116 98.8875 40.5116 87.5C40.5116 76.4345 42.2011 67.141 45.5076 59.5614L45.5093 59.5574C48.8237 51.9089 53.4463 46.1855 59.3425 42.288L59.3512 42.2823C65.2507 38.3326 72.2052 36.33 80.2861 36.33C84.7597 36.33 88.868 36.9652 92.625 38.2175L92.6316 38.2197C96.4516 39.4763 99.7929 41.2763 102.674 43.611C105.552 45.9432 107.912 48.7723 109.756 52.1125L109.762 52.1224C111.593 55.3888 112.824 59.1572 113.431 63.4532L113.646 64.9769H115.185H149.846Z" stroke="#344E41" stroke-width="3.54263"/>
</g>
<defs>
<clipPath id="clip0_261_2">
<rect width="318" height="472" fill="white"/>
</clipPath>
</defs>
</svg>
